<svg width="340" height="341" viewBox="0 0 340 341" fill="none" xmlns="http://www.w3.org/2000/svg">
<path d="M267.281 52.1471L267.321 52.1068L267.358 52.0629L286.631 28.9305L286.671 28.882L286.706 28.8296C288.251 26.5309 289.952 25.3325 291.706 24.8713C293.475 24.406 295.471 24.6462 297.675 25.5532C302.129 27.3863 307.067 31.7933 311.823 37.37C316.55 42.9128 320.984 49.4758 324.454 55.439C327.938 61.4284 330.39 66.7117 331.215 69.7012L331.231 69.7588L331.253 69.8145C353.375 127.391 319.861 197.201 261.507 211.525C249.975 212.962 238.294 213.119 226.55 213.001C223.391 212.97 220.225 212.918 217.055 212.866C208.45 212.726 199.825 212.585 191.271 212.844C188.453 212.841 186.69 212.205 185.603 211.111C184.508 210.009 183.86 208.205 183.824 205.321L183.824 205.311C183.521 190.445 183.295 175.656 183.068 160.864C183.032 157.981 183.555 156.217 184.498 155.154C185.415 154.119 186.966 153.489 189.644 153.452L189.646 153.452C197.001 153.334 204.309 153.349 211.651 153.364C214.105 153.369 216.563 153.374 219.027 153.374H219.054L219.08 153.373L219.59 153.35C223.881 153.163 237.103 152.587 245.473 152.587C266.523 152.828 280.18 136.728 283.839 118.656C287.494 100.606 281.282 80.0988 262.157 71.2813C260.326 70.1501 259.486 68.7969 259.213 67.3679C258.926 65.8693 259.233 64.13 260.001 62.2573C261.543 58.4997 264.751 54.6642 267.281 52.1471Z" fill="url(#paint0_linear_68_519)"/>
<path d="M267.281 52.1471L267.321 52.1068L267.358 52.0629L286.631 28.9305L286.671 28.882L286.706 28.8296C288.251 26.5309 289.952 25.3325 291.706 24.8713C293.475 24.406 295.471 24.6462 297.675 25.5532C302.129 27.3863 307.067 31.7933 311.823 37.37C316.55 42.9128 320.984 49.4758 324.454 55.439C327.938 61.4284 330.39 66.7117 331.215 69.7012L331.231 69.7588L331.253 69.8145C353.375 127.391 319.861 197.201 261.507 211.525C249.975 212.962 238.294 213.119 226.55 213.001C223.391 212.97 220.225 212.918 217.055 212.866C208.45 212.726 199.825 212.585 191.271 212.844C188.453 212.841 186.69 212.205 185.603 211.111C184.508 210.009 183.86 208.205 183.824 205.321L183.824 205.311C183.521 190.445 183.295 175.656 183.068 160.864C183.032 157.981 183.555 156.217 184.498 155.154C185.415 154.119 186.966 153.489 189.644 153.452L189.646 153.452C197.001 153.334 204.309 153.349 211.651 153.364C214.105 153.369 216.563 153.374 219.027 153.374H219.054L219.08 153.373L219.59 153.35C223.881 153.163 237.103 152.587 245.473 152.587C266.523 152.828 280.18 136.728 283.839 118.656C287.494 100.606 281.282 80.0988 262.157 71.2813C260.326 70.1501 259.486 68.7969 259.213 67.3679C258.926 65.8693 259.233 64.13 260.001 62.2573C261.543 58.4997 264.751 54.6642 267.281 52.1471Z" stroke="url(#paint1_linear_68_519)" stroke-width="2.45197"/>
<path d="M267.281 52.1471L267.321 52.1068L267.358 52.0629L286.631 28.9305L286.671 28.882L286.706 28.8296C288.251 26.5309 289.952 25.3325 291.706 24.8713C293.475 24.406 295.471 24.6462 297.675 25.5532C302.129 27.3863 307.067 31.7933 311.823 37.37C316.55 42.9128 320.984 49.4758 324.454 55.439C327.938 61.4284 330.39 66.7117 331.215 69.7012L331.231 69.7588L331.253 69.8145C353.375 127.391 319.861 197.201 261.507 211.525C249.975 212.962 238.294 213.119 226.55 213.001C223.391 212.97 220.225 212.918 217.055 212.866C208.45 212.726 199.825 212.585 191.271 212.844C188.453 212.841 186.69 212.205 185.603 211.111C184.508 210.009 183.86 208.205 183.824 205.321L183.824 205.311C183.521 190.445 183.295 175.656 183.068 160.864C183.032 157.981 183.555 156.217 184.498 155.154C185.415 154.119 186.966 153.489 189.644 153.452L189.646 153.452C197.001 153.334 204.309 153.349 211.651 153.364C214.105 153.369 216.563 153.374 219.027 153.374H219.054L219.08 153.373L219.59 153.35C223.881 153.163 237.103 152.587 245.473 152.587C266.523 152.828 280.18 136.728 283.839 118.656C287.494 100.606 281.282 80.0988 262.157 71.2813C260.326 70.1501 259.486 68.7969 259.213 67.3679C258.926 65.8693 259.233 64.13 260.001 62.2573C261.543 58.4997 264.751 54.6642 267.281 52.1471Z" stroke="url(#paint2_linear_68_519)" stroke-opacity="0.58" stroke-width="2.45197"/>
<path d="M237.108 2.22145L237.114 2.22137C251.876 1.98851 265.38 5.16756 278.616 11.0056C281.145 12.1511 282.184 13.2739 282.431 14.3036C282.677 15.3255 282.272 16.8062 280.44 19.0185L280.435 19.0245C274.383 26.4295 268.176 33.7262 261.977 41.0149C260.676 42.5437 259.376 44.0722 258.078 45.6012C256.58 47.3651 255.227 49.154 253.944 50.8496C253.601 51.3025 253.264 51.7487 252.93 52.1861C251.33 54.2809 249.806 56.1821 248.132 57.7831C244.851 60.9222 240.975 62.9332 234.815 62.6377C232.817 62.5281 230.294 62.2988 227.427 62.0383C220.226 61.384 210.858 60.5327 202.202 60.8864C196.129 61.1345 190.251 61.9746 185.575 63.9498C180.888 65.9299 177.288 69.112 176.058 74.0596C175.321 76.2264 175.249 78.197 176.593 79.5481C177.224 80.1828 178.057 80.5501 178.946 80.7644C179.838 80.9792 180.871 81.0603 181.997 81.0603L240.905 81.0603C241.5 81.1012 242.342 81.0972 243.242 81.093C243.633 81.0912 244.035 81.0893 244.432 81.0911C245.836 81.0972 247.284 81.1448 248.471 81.3477C249.063 81.449 249.54 81.5811 249.892 81.7384C250.252 81.8988 250.389 82.044 250.436 82.1171C250.457 82.1502 250.508 82.2305 250.448 82.4786C250.379 82.7639 250.171 83.2171 249.668 83.8654C241.654 93.4907 233.202 102.634 224.732 111.797C218.656 118.37 212.569 124.954 206.628 131.734C200.241 138.763 192.955 142.623 183.526 141.951C180.646 141.712 178.324 142.01 176.832 143.604C175.391 145.143 175.065 147.555 175.102 150.497C175.027 188.896 175.329 227.293 175.783 265.687C175.782 275.242 173.641 283.559 167.112 290.658L167.068 290.705L167.03 290.757C165.303 293.085 163.622 295.376 161.965 297.632C151.566 311.799 142.167 324.602 128.922 336.72C125.02 339.513 122.871 339.39 121.619 338.524C120.909 338.034 120.277 337.186 119.744 335.949C119.213 334.719 118.818 333.19 118.529 331.453C117.951 327.978 117.832 323.864 117.806 320.05C117.8 319.178 117.799 318.316 117.798 317.48C117.796 314.764 117.793 312.32 117.618 310.687C117.077 280.714 117.561 250.624 118.046 220.501C118.201 210.813 118.357 201.122 118.479 191.43C118.98 151.6 118.905 111.781 115.878 72.266L115.867 72.1289L115.827 71.9975C114.743 68.4935 113.415 65.9798 111.25 64.3969C109.089 62.816 106.309 62.3217 102.718 62.3213C89.4052 62.2298 76.1568 62.28 62.9219 62.3302C42.7678 62.4067 22.6449 62.483 2.37388 62.0583C8.81293 53.35 15.9425 45.4002 23.2591 37.5634C25.1612 35.526 27.0775 33.4948 28.9974 31.4596C34.975 25.1233 40.9887 18.7488 46.7249 12.0314C52.7429 5.31905 60.0296 2.37923 69.0034 2.37887C77.0245 2.40137 85.0443 2.4271 93.0631 2.45283C141.103 2.60695 189.106 2.76095 237.108 2.22145Z" fill="url(#paint3_linear_68_519)" stroke="url(#paint4_linear_68_519)" stroke-width="2.45197"/>
<defs>
<linearGradient id="paint0_linear_68_519" x1="421.296" y1="283.596" x2="181.87" y2="48.9669" gradientUnits="userSpaceOnUse">
<stop offset="0.466667" stop-color="#FFB8A0"/>
<stop offset="0.671667" stop-color="#FBE0CC"/>
<stop offset="0.856667" stop-color="#FFF1D9"/>
</linearGradient>
<linearGradient id="paint1_linear_68_519" x1="237.629" y1="162.085" x2="260.589" y2="214.259" gradientUnits="userSpaceOnUse">
<stop stop-color="#C9B6ED" stop-opacity="0"/>
<stop offset="1" stop-color="white"/>
</linearGradient>
<linearGradient id="paint2_linear_68_519" x1="242.226" y1="40.7728" x2="213.047" y2="74.5483" gradientUnits="userSpaceOnUse">
<stop stop-color="white"/>
<stop offset="1" stop-opacity="0"/>
</linearGradient>
<linearGradient id="paint3_linear_68_519" x1="207.05" y1="-29.1794" x2="89.3358" y2="423.292" gradientUnits="userSpaceOnUse">
<stop stop-color="#B385FF"/>
<stop offset="1" stop-color="#3F00A6"/>
</linearGradient>
<linearGradient id="paint4_linear_68_519" x1="178.871" y1="340.352" x2="0.000760798" y2="124.709" gradientUnits="userSpaceOnUse">
<stop stop-color="#C5C4EE"/>
<stop offset="1" stop-color="white" stop-opacity="0"/>
</linearGradient>
</defs>
</svg>
