<svg width="692" height="693" viewBox="0 0 692 693" fill="none" xmlns="http://www.w3.org/2000/svg">
<g clip-path="url(#clip0_933_2322)">
<path d="M483.503 2.69218L483.515 2.692C513.618 2.21717 541.154 8.69982 568.145 20.6047C573.302 22.9406 575.42 25.2301 575.925 27.3297C576.425 29.4136 575.6 32.4331 571.864 36.9442L571.859 36.9504L571.854 36.9566C559.513 52.0556 546.858 66.9338 534.217 81.7957C531.565 84.9143 528.913 88.0321 526.264 91.151C523.21 94.748 520.45 98.396 517.834 101.854C517.135 102.777 516.447 103.687 515.766 104.579C512.503 108.85 509.395 112.727 505.982 115.992C499.291 122.393 491.389 126.494 478.826 125.891C474.752 125.668 469.607 125.2 463.761 124.669C449.078 123.335 429.975 121.599 412.324 122.32C399.939 122.826 387.953 124.539 378.418 128.567C368.86 132.605 361.518 139.094 359.011 149.183C357.509 153.601 357.362 157.62 360.102 160.375C361.389 161.669 363.087 162.418 364.901 162.855C366.72 163.293 368.826 163.458 371.122 163.458H491.246C492.459 163.542 494.176 163.534 496.01 163.525C496.808 163.521 497.628 163.517 498.438 163.521C501.301 163.533 504.253 163.631 506.673 164.044C507.881 164.251 508.854 164.52 509.572 164.841C510.305 165.168 510.586 165.464 510.68 165.613C510.723 165.681 510.827 165.844 510.705 166.35C510.565 166.932 510.14 167.856 509.115 169.178C492.773 188.806 475.538 207.45 458.266 226.136C445.875 239.54 433.465 252.966 421.35 266.791C408.324 281.124 393.468 288.995 374.242 287.624C368.367 287.137 363.632 287.744 360.589 290.996C357.651 294.134 356.987 299.051 357.063 305.051C356.909 383.353 357.525 461.651 358.45 539.944C358.448 559.429 354.083 576.388 340.769 590.863L340.68 590.961L340.601 591.067C337.081 595.814 333.652 600.485 330.274 605.085C309.067 633.973 289.901 660.081 262.892 684.793C254.937 690.487 250.553 690.237 248 688.471C246.554 687.471 245.265 685.743 244.177 683.22C243.095 680.711 242.288 677.594 241.699 674.053C240.521 666.966 240.279 658.577 240.226 650.801C240.214 649.022 240.212 647.264 240.21 645.559C240.204 640.019 240.199 635.037 239.843 631.707C238.739 570.587 239.726 509.229 240.714 447.803C241.032 428.047 241.35 408.285 241.598 388.521C242.619 307.301 242.467 226.104 236.293 145.525L236.272 145.246L236.189 144.978C233.98 137.832 231.271 132.706 226.857 129.479C222.45 126.255 216.781 125.247 209.458 125.246C182.311 125.06 155.295 125.162 128.307 125.264C87.2094 125.42 46.1753 125.576 4.83921 124.71C17.9695 106.952 32.508 90.7411 47.4277 74.7606C51.3065 70.606 55.2141 66.4639 59.1292 62.3138C71.3184 49.3932 83.5814 36.3943 95.2786 22.6965C107.55 9.00878 122.409 3.01394 140.708 3.01317C157.065 3.05907 173.418 3.11154 189.77 3.164C287.732 3.47828 385.618 3.79231 483.503 2.69218Z" fill="url(#paint0_linear_933_2322)" stroke="url(#paint1_linear_933_2322)" stroke-width="5"/>
<path d="M545.028 104.494L545.11 104.411L545.185 104.322L584.486 57.1509L584.568 57.0519L584.64 56.9451C587.79 52.2576 591.258 49.8139 594.835 48.8735C598.444 47.9246 602.514 48.4144 607.007 50.2639C616.089 54.002 626.159 62.9886 635.857 74.3605C645.496 85.6631 654.539 99.0463 661.613 111.206C668.719 123.42 673.718 134.193 675.402 140.289L675.434 140.407L675.478 140.521C720.59 257.93 652.248 400.283 533.255 429.492C509.739 432.422 485.92 432.743 461.972 432.503C455.53 432.439 449.073 432.334 442.61 432.228C425.063 431.942 407.474 431.655 390.032 432.182C384.285 432.177 380.69 430.88 378.472 428.648C376.24 426.402 374.918 422.722 374.845 416.842L374.845 416.832L374.844 416.822C374.228 386.507 373.766 356.35 373.303 326.187C373.23 320.306 374.297 316.711 376.219 314.543C378.09 312.433 381.252 311.148 386.713 311.072L386.718 311.072C401.715 310.832 416.618 310.862 431.591 310.892C436.594 310.902 441.606 310.912 446.631 310.912H446.685L446.739 310.91C447.049 310.896 447.396 310.881 447.777 310.865C456.526 310.483 483.492 309.308 500.56 309.308C543.483 309.799 571.331 276.968 578.793 240.117C586.246 203.309 573.578 161.492 534.58 143.511C530.845 141.205 529.134 138.445 528.576 135.531C527.992 132.476 528.617 128.929 530.184 125.11C533.328 117.448 539.87 109.626 545.028 104.494Z" fill="url(#paint2_linear_933_2322)"/>
<path d="M545.028 104.494L545.11 104.411L545.185 104.322L584.486 57.1509L584.568 57.0519L584.64 56.9451C587.79 52.2576 591.258 49.8139 594.835 48.8735C598.444 47.9246 602.514 48.4144 607.007 50.2639C616.089 54.002 626.159 62.9886 635.857 74.3605C645.496 85.6631 654.539 99.0463 661.613 111.206C668.719 123.42 673.718 134.193 675.402 140.289L675.434 140.407L675.478 140.521C720.59 257.93 652.248 400.283 533.255 429.492C509.739 432.422 485.92 432.743 461.972 432.503C455.53 432.439 449.073 432.334 442.61 432.228C425.063 431.942 407.474 431.655 390.032 432.182C384.285 432.177 380.69 430.88 378.472 428.648C376.24 426.402 374.918 422.722 374.845 416.842L374.845 416.832L374.844 416.822C374.228 386.507 373.766 356.35 373.303 326.187C373.23 320.306 374.297 316.711 376.219 314.543C378.09 312.433 381.252 311.148 386.713 311.072L386.718 311.072C401.715 310.832 416.618 310.862 431.591 310.892C436.594 310.902 441.606 310.912 446.631 310.912H446.685L446.739 310.91C447.049 310.896 447.396 310.881 447.777 310.865C456.526 310.483 483.492 309.308 500.56 309.308C543.483 309.799 571.331 276.968 578.793 240.117C586.246 203.309 573.578 161.492 534.58 143.511C530.845 141.205 529.134 138.445 528.576 135.531C527.992 132.476 528.617 128.929 530.184 125.11C533.328 117.448 539.87 109.626 545.028 104.494Z" stroke="url(#paint3_linear_933_2322)" stroke-width="5"/>
<path d="M545.028 104.494L545.11 104.411L545.185 104.322L584.486 57.1509L584.568 57.0519L584.64 56.9451C587.79 52.2576 591.258 49.8139 594.835 48.8735C598.444 47.9246 602.514 48.4144 607.007 50.2639C616.089 54.002 626.159 62.9886 635.857 74.3605C645.496 85.6631 654.539 99.0463 661.613 111.206C668.719 123.42 673.718 134.193 675.402 140.289L675.434 140.407L675.478 140.521C720.59 257.93 652.248 400.283 533.255 429.492C509.739 432.422 485.92 432.743 461.972 432.503C455.53 432.439 449.073 432.334 442.61 432.228C425.063 431.942 407.474 431.655 390.032 432.182C384.285 432.177 380.69 430.88 378.472 428.648C376.24 426.402 374.918 422.722 374.845 416.842L374.845 416.832L374.844 416.822C374.228 386.507 373.766 356.35 373.303 326.187C373.23 320.306 374.297 316.711 376.219 314.543C378.09 312.433 381.252 311.148 386.713 311.072L386.718 311.072C401.715 310.832 416.618 310.862 431.591 310.892C436.594 310.902 441.606 310.912 446.631 310.912H446.685L446.739 310.91C447.049 310.896 447.396 310.881 447.777 310.865C456.526 310.483 483.492 309.308 500.56 309.308C543.483 309.799 571.331 276.968 578.793 240.117C586.246 203.309 573.578 161.492 534.58 143.511C530.845 141.205 529.134 138.445 528.576 135.531C527.992 132.476 528.617 128.929 530.184 125.11C533.328 117.448 539.87 109.626 545.028 104.494Z" stroke="url(#paint4_linear_933_2322)" stroke-opacity="0.58" stroke-width="5"/>
</g>
<defs>
<linearGradient id="paint0_linear_933_2322" x1="422.21" y1="-61.3396" x2="182.17" y2="861.327" gradientUnits="userSpaceOnUse">
<stop stop-color="#B385FF"/>
<stop offset="1" stop-color="#3F00A6"/>
</linearGradient>
<linearGradient id="paint1_linear_933_2322" x1="364.747" y1="692.199" x2="6.09943e-07" y2="252.465" gradientUnits="userSpaceOnUse">
<stop stop-color="#C5C4EE"/>
<stop offset="1" stop-color="white" stop-opacity="0"/>
</linearGradient>
<linearGradient id="paint2_linear_933_2322" x1="859.091" y1="576.458" x2="370.86" y2="98.0085" gradientUnits="userSpaceOnUse">
<stop offset="0.466667" stop-color="#FFB8A0"/>
<stop offset="0.671667" stop-color="#FBE0CC"/>
<stop offset="0.856667" stop-color="#FFF1D9"/>
</linearGradient>
<linearGradient id="paint3_linear_933_2322" x1="484.563" y1="328.675" x2="531.383" y2="435.067" gradientUnits="userSpaceOnUse">
<stop stop-color="#C9B6ED" stop-opacity="0"/>
<stop offset="1" stop-color="white"/>
</linearGradient>
<linearGradient id="paint4_linear_933_2322" x1="493.937" y1="81.2994" x2="434.436" y2="150.173" gradientUnits="userSpaceOnUse">
<stop stop-color="white"/>
<stop offset="1" stop-opacity="0"/>
</linearGradient>
<clipPath id="clip0_933_2322">
<rect width="692" height="692" fill="white" transform="translate(0 0.199219)"/>
</clipPath>
</defs>
</svg>
